# xmcd
#
# Track frame offsets: 
#        150
#        14148
#        29549
#        43631
#        54005
#        67900
#        81254
#        94781
#        106234
#        120165
#        132441
#
# Disc length: 1946 seconds
#
# Revision: 0
# Processed by: cddbd v1.5.2PL0 Copyright (c) Steve Scherf et al.
# Submitted via: ExactAudioCopy v0.99pb5
#
DISCID=8707980b
DTITLE=Sue Richards - A Girl Named Sue
DYEAR=1974
DGENRE=Country
TTITLE0=Ease Me To The Ground
TTITLE1=It Only Hurts When I Try To Smile
TTITLE2=You Don't Have To Change The World
TTITLE3=Would You Lay With Me (In A Field Of Stone)
TTITLE4=Sing A Song With Me
TTITLE5=Tell Me A Lie
TTITLE6=I Just Had You On My Mind
TTITLE7=Wake Up Morning
TTITLE8=I Will
TTITLE9=Oh Baby What Would You Say
TTITLE10=Make Me Believe It
EXTD=
EXTT0=
EXTT1=
EXTT2=
EXTT3=
EXTT4=
EXTT5=
EXTT6=
EXTT7=
EXTT8=
EXTT9=
EXTT10=
PLAYORDER=
